<svg xmlns:xlink="http://www.w3.org/1999/xlink" xmlns="http://www.w3.org/2000/svg" width="30" height="32" viewBox="0 0 30 32" fill="none">
<g opacity="0.15" filter="url(#filter0_d_149_62388)">
<path d="M25.5554 5.07658C24.2633 5.06578 22.9845 4.81536 21.7838 4.33799C20.2856 3.81416 18.9499 2.43646 18.0279 1.92835C17.1576 1.39033 16.1487 1.119 15.1259 1.14784C14.0534 1.11813 12.9939 1.38844 12.0667 1.92835C11.1448 2.45218 9.71997 3.70415 8.22181 4.23322C7.01893 4.70873 5.73835 4.95735 4.44493 4.96657C4.13063 4.96657 3.86871 4.96657 3.65394 4.96657C3.46729 4.96656 3.28822 5.04037 3.15575 5.17186C3.02328 5.30335 2.94816 5.48187 2.94678 5.66852V12.0331C2.95629 12.9255 3.11202 13.8103 3.40775 14.6523C3.69632 15.7248 4.15622 16.7436 4.7697 17.6695C5.41172 18.792 6.19324 19.8287 7.09555 20.7549C8.32467 22.0631 9.6636 23.2635 11.0976 24.3432C11.9986 25.0137 15.1521 26.9256 15.1259 26.8523C15.1259 26.9256 18.1431 25.0137 19.0441 24.3432C20.4337 23.2992 21.7275 22.1334 22.91 20.8597C23.8131 19.9341 24.5947 18.8973 25.2359 17.7743C25.8465 16.8494 26.3046 15.8324 26.5926 14.7622C26.8879 13.9201 27.0437 13.0354 27.0536 12.1431V5.75756C27.0543 5.66519 27.0366 5.57361 27.0016 5.48813C26.9665 5.40265 26.9148 5.32498 26.8495 5.25966C26.7842 5.19434 26.7065 5.14266 26.621 5.10763C26.5356 5.0726 26.444 5.05494 26.3516 5.05564C26.1369 5.05564 25.8697 5.06087 25.5554 5.07658Z" fill="#1F1D20"/>
</g>
<path d="M27.2834 14.0767C27.4764 13.4253 27.5714 12.7489 27.565 12.0695V5.41327C27.565 5.31668 27.5459 5.22105 27.5087 5.13188C27.4716 5.04271 27.4173 4.96177 27.3487 4.89371C27.2802 4.82566 27.1988 4.77183 27.1094 4.73533C27.02 4.69884 26.9242 4.6804 26.8276 4.68108C26.6024 4.68108 26.3156 4.68108 26.0033 4.68108C24.6545 4.67217 23.3192 4.4117 22.0659 3.91305C20.5042 3.36518 19.1166 1.93151 18.154 1.40413C17.2457 0.844317 16.1946 0.559772 15.128 0.584906L12.189 15.8278L27.2834 14.0767Z" fill="#0883D9"/>
<path d="M7.92935 3.84637C6.67636 4.33999 5.34363 4.60028 3.997 4.6144C3.6693 4.6144 3.39281 4.6144 3.16752 4.6144C2.97333 4.6144 2.78706 4.69154 2.64975 4.82885C2.51244 4.96616 2.4353 5.1524 2.4353 5.34659V12.0029C2.42927 12.7214 2.53462 13.4364 2.74763 14.1226H15.1283V0.625733C14.0103 0.603441 12.9074 0.886715 11.9385 1.44499C10.9707 1.97237 9.49101 3.29339 7.92935 3.84637Z" fill="#33BFF0"/>
<path d="M15.1282 27.4148C15.1282 27.4865 18.2771 25.4947 19.2243 24.7984C20.6736 23.7077 22.0238 22.4912 23.2591 21.1631C24.1991 20.1979 25.0128 19.1175 25.6809 17.9475C26.3219 16.9839 26.801 15.922 27.0992 14.8037C27.176 14.5272 27.2426 14.2917 27.2989 14.0767H15.1435L15.1282 27.4148Z" fill="#0F5094"/>
<path d="M2.74731 14.0767C2.7934 14.261 2.84976 14.4607 2.91632 14.6911C3.21526 15.8082 3.69245 16.8698 4.32951 17.8349C4.99893 19.0068 5.81444 20.089 6.75648 21.0555C8.03781 22.4203 9.43394 23.6725 10.9295 24.7984C11.8665 25.4947 15.1536 27.4865 15.128 27.4148V14.1023L2.74731 14.0767Z" fill="#0370C8"/>
<defs>
<filter id="filter0_d_149_62388" x="0.613444" y="1.14563" width="28.7734" height="30.3754" filterUnits="userSpaceOnUse" color-interpolation-filters="sRGB">
<feFlood flood-opacity="0" result="BackgroundImageFix"/>
<feColorMatrix in="SourceAlpha" type="matrix" values="0 0 0 0 0 0 0 0 0 0 0 0 0 0 0 0 0 0 127 0" result="hardAlpha"/>
<feOffset dy="2.33333"/>
<feGaussianBlur stdDeviation="1.16667"/>
<feComposite in2="hardAlpha" operator="out"/>
<feColorMatrix type="matrix" values="0 0 0 0 0 0 0 0 0 0 0 0 0 0 0 0 0 0 0.25 0"/>
<feBlend mode="normal" in2="BackgroundImageFix" result="effect1_dropShadow_149_62388"/>
<feBlend mode="normal" in="SourceGraphic" in2="effect1_dropShadow_149_62388" result="shape"/>
</filter>
</defs>
</svg>