<svg xmlns:xlink="http://www.w3.org/1999/xlink" xmlns="http://www.w3.org/2000/svg" width="16" height="16" viewBox="0 0 16 16" fill="none">
<path d="M7.84613 0.445557H1.44653C1.31248 0.445782 1.184 0.499189 1.0893 0.594053C0.994597 0.688917 0.941406 0.817484 0.941406 0.951528V14.7508C0.941406 14.8848 0.994597 15.0134 1.0893 15.1082C1.184 15.2031 1.31248 15.2565 1.44653 15.2567H12.5379C12.6719 15.2565 12.8004 15.2031 12.8951 15.1082C12.9898 15.0134 13.043 14.8848 13.043 14.7508V5.61856C13.043 5.48452 12.9898 5.35595 12.8951 5.26109C12.8004 5.16623 12.6719 5.11282 12.5379 5.11259H8.85637C8.72233 5.11237 8.59385 5.05896 8.49915 4.9641C8.40444 4.86923 8.35125 4.74067 8.35125 4.60662V0.951528C8.35136 0.885124 8.33838 0.819348 8.31305 0.757966C8.28771 0.696583 8.25052 0.640799 8.20361 0.593804C8.15669 0.546809 8.10097 0.509526 8.03963 0.484088C7.97829 0.45865 7.91254 0.445557 7.84613 0.445557V0.445557Z" fill="#83B9F9"/>
<path d="M7.61454 1.09136V4.5582C7.61476 4.89513 7.74859 5.21821 7.98667 5.45661C8.22475 5.69501 8.54765 5.82927 8.88458 5.82995H12.377V14.612H1.60932V1.09136H7.61454ZM7.859 0.333252H1.36655C1.231 0.333252 1.10101 0.387098 1.00516 0.482945C0.909315 0.578791 0.855469 0.708787 0.855469 0.844335V14.8565C0.855469 14.9236 0.868688 14.9901 0.894373 15.0521C0.920057 15.1141 0.957703 15.1704 1.00516 15.2179C1.05262 15.2654 1.10896 15.303 1.17097 15.3287C1.23298 15.3544 1.29944 15.3676 1.36655 15.3676H12.6214C12.757 15.3676 12.887 15.3138 12.9828 15.2179C13.0787 15.1221 13.1325 14.9921 13.1325 14.8565V5.58463C13.1325 5.44908 13.0787 5.31908 12.9828 5.22324C12.887 5.12739 12.757 5.07354 12.6214 5.07354H8.88458C8.74903 5.07354 8.61903 5.0197 8.52319 4.92385C8.42734 4.828 8.37349 4.69801 8.37349 4.56246V0.844335C8.37349 0.708787 8.31965 0.578791 8.2238 0.482945C8.12796 0.387098 7.99796 0.333252 7.86241 0.333252H7.859Z" fill="url(#paint0_linear_1934_161290)"/>
<path d="M12.9382 5.17392L8.19533 0.445557V4.29827C8.19397 4.529 8.28427 4.75084 8.44638 4.91504C8.6085 5.07923 8.82917 5.17235 9.05991 5.17392H12.9382Z" fill="#0078D4"/>
<path d="M10.4117 7.42798H3.10407C2.83733 7.42798 2.62109 7.64421 2.62109 7.91095V8.10346C2.62109 8.3702 2.83733 8.58643 3.10407 8.58643H10.4117C10.6784 8.58643 10.8947 8.3702 10.8947 8.10346V7.91095C10.8947 7.64421 10.6784 7.42798 10.4117 7.42798Z" fill="white"/>
<path opacity="0.8" d="M10.4117 9.77393H3.10407C2.83733 9.77393 2.62109 9.99016 2.62109 10.2569V10.4494C2.62109 10.7161 2.83733 10.9324 3.10407 10.9324H10.4117C10.6784 10.9324 10.8947 10.7161 10.8947 10.4494V10.2569C10.8947 9.99016 10.6784 9.77393 10.4117 9.77393Z" fill="white"/>
<path opacity="0.6" d="M10.4117 12.1204H3.10407C2.83733 12.1204 2.62109 12.3366 2.62109 12.6033V12.7958C2.62109 13.0626 2.83733 13.2788 3.10407 13.2788H10.4117C10.6784 13.2788 10.8947 13.0626 10.8947 12.7958V12.6033C10.8947 12.3366 10.6784 12.1204 10.4117 12.1204Z" fill="white"/>
<path d="M11.1596 15.4839C9.39125 15.4839 7.93722 14.121 7.16889 11.736C6.67164 10.4957 6.11069 9.282 5.48828 8.09961C6.61266 8.11153 10.5437 8.15327 11.2959 8.15327C13.0949 8.15327 14.4893 10.3032 14.4893 12.1568C14.4875 13.0391 14.136 13.8847 13.5119 14.5083C12.8878 15.132 12.0419 15.4828 11.1596 15.4839V15.4839Z" fill="#50E6FF"/>
<path d="M5.78376 8.28484C7.18413 8.29932 10.6016 8.3351 11.2941 8.3351C12.9909 8.3351 14.3061 10.3879 14.3061 12.1537C14.3061 12.9896 13.974 13.7913 13.383 14.3823C12.7919 14.9734 11.9903 15.3054 11.1544 15.3054C9.47037 15.3054 8.07852 13.9851 7.33575 11.6827C6.879 10.5234 6.36094 9.38915 5.78376 8.28484M5.1875 7.91431C5.1875 7.91431 6.66879 10.7815 6.99418 11.79C7.74291 14.1103 9.21909 15.6657 11.1586 15.6657C12.0901 15.6657 12.9834 15.2957 13.642 14.6371C14.3006 13.9785 14.6706 13.0852 14.6706 12.1537C14.6706 10.2142 13.2353 7.97138 11.2949 7.97138C10.415 7.97138 5.1875 7.91431 5.1875 7.91431Z" fill="#50E6FF"/>
<path d="M11.2921 15.6654C13.4166 15.6654 15.1388 13.9432 15.1388 11.8187C15.1388 9.69417 13.4166 7.97192 11.2921 7.97192C9.16756 7.97192 7.44531 9.69417 7.44531 11.8187C7.44531 13.9432 9.16756 15.6654 11.2921 15.6654Z" fill="white"/>
<path d="M11.2929 8.37921C11.9732 8.37904 12.6383 8.58062 13.2041 8.95847C13.7698 9.33631 14.2108 9.87344 14.4713 10.5019C14.7318 11.1304 14.8 11.822 14.6674 12.4893C14.5347 13.1566 14.2072 13.7695 13.7262 14.2506C13.2452 14.7318 12.6323 15.0594 11.9651 15.1922C11.2979 15.325 10.6062 15.2569 9.97769 14.9966C9.34914 14.7363 8.8119 14.2955 8.43391 13.7298C8.05593 13.1642 7.85418 12.4991 7.85418 11.8188C7.85508 10.907 8.21764 10.0328 8.86231 9.38793C9.50697 8.74311 10.3811 8.38033 11.2929 8.37921M11.2929 7.97119C10.5319 7.97119 9.78804 8.19685 9.1553 8.61963C8.52257 9.04241 8.02941 9.64332 7.7382 10.3464C7.44698 11.0494 7.37078 11.8231 7.51924 12.5694C7.66771 13.3158 8.03415 14.0014 8.57225 14.5395C9.11035 15.0776 9.79592 15.444 10.5423 15.5925C11.2886 15.7409 12.0623 15.6647 12.7653 15.3735C13.4684 15.0823 14.0693 14.5891 14.4921 13.9564C14.9149 13.3237 15.1405 12.5798 15.1405 11.8188C15.1406 11.3135 15.0412 10.8131 14.8479 10.3462C14.6545 9.87938 14.3711 9.45518 14.0138 9.09788C13.6565 8.74057 13.2323 8.45717 12.7655 8.26384C12.2986 8.07052 11.7982 7.97108 11.2929 7.97119V7.97119Z" fill="#50E6FF"/>
<path d="M10.8279 11.3215H9.58594V10.0779H10.8279V11.3215ZM13.0008 10.0796H11.7589V11.3215H13.0008V10.0796ZM10.8279 12.2585H9.58594V13.5004H10.8279V12.2585ZM13.0008 12.2585H11.7589V13.5004H13.0008V12.2585Z" fill="#50E6FF"/>
<defs>
<linearGradient id="paint0_linear_1934_161290" x1="6.99442" y1="15.3702" x2="6.99442" y2="0.333252" gradientUnits="userSpaceOnUse">
<stop stop-color="#0078D4"/>
<stop offset="0.817" stop-color="#5EA0EF"/>
</linearGradient>
</defs>
</svg>