<svg xmlns:xlink="http://www.w3.org/1999/xlink" xmlns="http://www.w3.org/2000/svg" width="48" height="48" viewBox="0 0 48 48" fill="none">
<path d="M24.0003 14.0104C14.9536 14.0104 7.61914 11.4794 7.61914 8.13855V39.4215C7.61914 42.6359 14.8258 45.2428 23.7703 45.2934H24.0003C33.0469 45.2934 40.3814 42.7624 40.3814 39.4215V8.13855C40.3814 11.4035 33.0469 14.0104 24.0003 14.0104Z" fill="url(#paint0_linear_1915_136534)"/>
<path d="M40.3814 8.13811C40.3814 11.4031 33.0469 14.01 24.0003 14.01C14.9536 14.01 7.61914 11.479 7.61914 8.13811C7.61914 4.79722 14.9536 2.26624 24.0003 2.26624C33.0469 2.26624 40.3814 4.79722 40.3814 8.13811Z" fill="#E8E8E8"/>
<path d="M36.5734 7.6567C36.5734 9.73211 30.9256 11.4026 24.0001 11.4026C17.0745 11.4026 11.4268 9.73211 11.4268 7.6567C11.4268 5.5813 17.0745 3.93616 24.0001 3.93616C30.9256 3.93616 36.5734 5.60661 36.5734 7.6567Z" fill="#50E6FF"/>
<path d="M24.0026 8.59632C20.63 8.51101 17.2676 8.99897 14.0615 10.039C17.2707 11.0597 20.6341 11.5221 24.0026 11.4057C27.378 11.5036 30.744 11.0066 33.9437 9.93774C30.7285 8.94583 27.3686 8.49246 24.0026 8.59632V8.59632Z" fill="#198AB3"/>
<path d="M33.9673 29.8559V21.2506H31.6673V31.7035H37.954V29.8559H33.9673ZM15.7207 25.6292C15.2458 25.44 14.8055 25.175 14.4173 24.8446C14.3143 24.7367 14.234 24.6094 14.1814 24.4703C14.1287 24.3312 14.1047 24.1831 14.1107 24.0347C14.1028 23.8861 14.134 23.738 14.2012 23.6049C14.2684 23.4719 14.3693 23.3583 14.494 23.2754C14.8083 23.06 15.1856 22.9532 15.5673 22.9717C16.4775 22.9311 17.3758 23.1891 18.1229 23.7056V21.529C17.3064 21.2281 16.4378 21.0905 15.5673 21.124C14.5647 21.0712 13.5763 21.3765 12.7818 21.9846C12.4355 22.249 12.1576 22.5911 11.971 22.9827C11.7844 23.3744 11.6944 23.8043 11.7085 24.2371C11.7085 25.5279 12.5262 26.5403 14.264 27.2996C14.8284 27.5368 15.3607 27.8429 15.8485 28.2108C15.9679 28.3101 16.0641 28.434 16.1303 28.5739C16.1965 28.7137 16.2312 28.8662 16.2318 29.0207C16.2319 29.1743 16.1948 29.3257 16.1236 29.4622C16.0525 29.5987 15.9494 29.7164 15.8229 29.8053C15.4751 30.007 15.0754 30.1038 14.6729 30.0837C13.645 30.0753 12.6552 29.6976 11.8873 29.0207V31.3745C12.7313 31.8055 13.6728 32.0147 14.6218 31.9819C15.6929 32.0449 16.7545 31.7508 17.6373 31.1467C17.9491 30.8543 18.1877 30.4938 18.3341 30.0939C18.4805 29.6941 18.5307 29.2659 18.4807 28.8435C18.493 28.1956 18.2658 27.5655 17.8418 27.0718C17.2447 26.449 16.522 25.9575 15.7207 25.6292V25.6292ZM29.1118 29.6534C29.692 28.6909 29.9844 27.585 29.9551 26.4644C29.8974 25.5157 29.608 24.5951 29.1118 23.7816C28.7128 22.9912 28.0916 22.332 27.3229 21.8833C26.544 21.4461 25.6627 21.2192 24.7673 21.2253C23.8022 21.2043 22.849 21.4403 22.0073 21.9086C21.2184 22.3447 20.5713 22.9944 20.1418 23.7816C19.6894 24.6765 19.4615 25.6662 19.4773 26.6669C19.4827 27.546 19.6926 28.4121 20.0907 29.1979C20.4807 29.9797 21.0938 30.6309 21.854 31.0708C22.6259 31.537 23.506 31.7985 24.4096 31.8301L26.6073 34.3611H29.6996L26.5562 31.577C27.6147 31.2626 28.5225 30.5793 29.1118 29.6534V29.6534ZM26.5562 29.0207C26.3235 29.3069 26.0271 29.5358 25.6901 29.6894C25.3532 29.8431 24.9848 29.9174 24.614 29.9065C24.2405 29.9185 23.8694 29.8421 23.5316 29.6836C23.1939 29.5252 22.8991 29.2892 22.6718 28.9954C22.1316 28.2645 21.8692 27.3682 21.9307 26.4644C21.8714 25.5609 22.1336 24.6653 22.6718 23.9334C22.9123 23.6398 23.2162 23.4032 23.5612 23.2412C23.9061 23.0791 24.2833 22.9957 24.6651 22.997C25.0383 22.981 25.4095 23.0585 25.7445 23.2222C26.0795 23.3858 26.3675 23.6304 26.5818 23.9334C27.0853 24.6796 27.3277 25.5687 27.2718 26.4644C27.361 27.3749 27.106 28.2857 26.5562 29.0207V29.0207Z" fill="url(#paint1_radial_1915_136534)"/>
<defs>
<linearGradient id="paint0_linear_1915_136534" x1="7.61914" y1="26.716" x2="40.3814" y2="26.716" gradientUnits="userSpaceOnUse">
<stop stop-color="#005BA1"/>
<stop offset="0.07" stop-color="#0060A9"/>
<stop offset="0.36" stop-color="#0071C8"/>
<stop offset="0.52" stop-color="#0078D4"/>
<stop offset="0.64" stop-color="#0074CD"/>
<stop offset="0.82" stop-color="#006ABB"/>
<stop offset="1" stop-color="#005BA1"/>
</linearGradient>
<radialGradient id="paint1_radial_1915_136534" cx="0" cy="0" r="1" gradientUnits="userSpaceOnUse" gradientTransform="translate(24.9207 27.7552) scale(18.0678 17.894)">
<stop stop-color="#F2F2F2"/>
<stop offset="0.58" stop-color="#EEEEEE"/>
<stop offset="1" stop-color="#E6E6E6"/>
</radialGradient>
</defs>
</svg>