<svg xmlns:xlink="http://www.w3.org/1999/xlink" xmlns="http://www.w3.org/2000/svg" width="16" height="16" viewBox="0 0 16 16" fill="none">
<path d="M5.2261 1.36499L2.8125 1.81227V5.10354L5.2261 5.61832L7.64814 4.64782V2.19203L5.2261 1.36499Z" fill="url(#paint0_linear_1934_161243)"/>
<path d="M2.8125 1.8122V5.10347L5.25142 5.61826V1.39868L2.8125 1.8122ZM3.84208 4.8503L3.15851 4.71527V2.18352L3.84208 2.07381V4.8503ZM4.90541 5.0444L4.12057 4.91781V2.02318L4.90541 1.88815V5.0444Z" fill="#341A6E"/>
<path d="M10.4488 1.40723L8.03516 1.8545V5.14577L10.4488 5.66056L12.8624 4.68162V2.23426L10.4488 1.40723Z" fill="url(#paint1_linear_1934_161243)"/>
<path d="M8.03516 1.85444V5.14571L10.4572 5.66049V1.44092L8.03516 1.85444ZM9.05629 4.89253L8.37272 4.75751V2.22576L9.05629 2.11605V4.89253ZM10.1196 5.08663L9.33479 4.96005V2.06542L10.1196 1.92195V5.08663Z" fill="#341A6E"/>
<path d="M2.75344 5.90527L0.339844 6.35255V9.64382L2.75344 10.1586L5.17548 9.1881V6.73231L2.75344 5.90527Z" fill="url(#paint2_linear_1934_161243)"/>
<path d="M0.332031 6.35265V9.61861L2.77095 10.1334V5.91382L0.332031 6.35265ZM1.35317 9.39919L0.669597 9.25572V6.72398L1.35317 6.60583V9.39919ZM2.42494 9.61861L1.6401 9.49202V6.56363L2.42494 6.42861V9.61861Z" fill="#341A6E"/>
<path d="M7.96047 5.87158L5.54688 6.31886V9.61013L7.96047 10.1334L10.3741 9.15441V6.69862L7.96047 5.87158Z" fill="url(#paint3_linear_1934_161243)"/>
<path d="M5.54688 6.3189V9.61861L7.97735 10.1334V5.91382L5.54688 6.3189ZM6.56801 9.36543L5.88444 9.22197V6.69022L6.56801 6.57207V9.36543ZM7.63135 9.55109L6.8465 9.42451V6.52988L7.63135 6.39485V9.55109Z" fill="#341A6E"/>
<path d="M13.1675 5.91382L10.7539 6.36109V9.65236L13.1675 10.1672L15.5895 9.19665V6.74086L13.1675 5.91382Z" fill="url(#paint4_linear_1934_161243)"/>
<path d="M10.7539 6.36109V9.61861L13.1928 10.1334V5.91382L10.7539 6.36109ZM11.7835 9.40763L11.0999 9.26416V6.73242L11.7835 6.61427V9.40763ZM12.8468 9.59329L12.062 9.4667V6.57207L12.8468 6.43705V9.59329Z" fill="#341A6E"/>
<path d="M5.1675 10.4961L2.75391 10.9349V14.2262L5.1675 14.7494L7.58954 13.7705V11.3231L5.1675 10.4961Z" fill="url(#paint5_linear_1934_161243)"/>
<path d="M2.75391 10.935V14.2263L5.19282 14.7495V10.4624L2.75391 10.935ZM3.78348 13.9815L3.09991 13.8381V11.3063L3.78348 11.1882V13.9815ZM4.84682 14.1756L4.06198 14.049V11.146L4.84682 11.0109V14.1756Z" fill="#341A6E"/>
<path d="M10.3823 10.53L7.96875 10.9773V14.2686L10.3823 14.7834L12.8044 13.8129V11.3571L10.3823 10.53Z" fill="url(#paint6_linear_1934_161243)"/>
<path d="M7.96875 10.9772V14.2685L10.4077 14.7833V10.5637L7.96875 10.9772ZM8.99833 14.0238L8.31476 13.8803V11.3486L8.99833 11.2304V14.0238ZM10.0617 14.2094L9.27682 14.0828V11.1882L10.0617 11.0532V14.2094Z" fill="#341A6E"/>
<defs>
<linearGradient id="paint0_linear_1934_161243" x1="2.8125" y1="3.49166" x2="7.64814" y2="3.49166" gradientUnits="userSpaceOnUse">
<stop stop-color="#B77AF4"/>
<stop offset="1" stop-color="#773ADC"/>
</linearGradient>
<linearGradient id="paint1_linear_1934_161243" x1="8.03516" y1="3.53389" x2="12.8624" y2="3.53389" gradientUnits="userSpaceOnUse">
<stop stop-color="#B77AF4"/>
<stop offset="1" stop-color="#773ADC"/>
</linearGradient>
<linearGradient id="paint2_linear_1934_161243" x1="0.339844" y1="8.03194" x2="5.16704" y2="8.03194" gradientUnits="userSpaceOnUse">
<stop stop-color="#B77AF4"/>
<stop offset="1" stop-color="#773ADC"/>
</linearGradient>
<linearGradient id="paint3_linear_1934_161243" x1="5.54688" y1="7.99825" x2="10.3741" y2="7.99825" gradientUnits="userSpaceOnUse">
<stop stop-color="#B77AF4"/>
<stop offset="1" stop-color="#773ADC"/>
</linearGradient>
<linearGradient id="paint4_linear_1934_161243" x1="10.7539" y1="8.04048" x2="15.5895" y2="8.04048" gradientUnits="userSpaceOnUse">
<stop stop-color="#B77AF4"/>
<stop offset="1" stop-color="#773ADC"/>
</linearGradient>
<linearGradient id="paint5_linear_1934_161243" x1="2.75391" y1="12.6228" x2="7.58954" y2="12.6228" gradientUnits="userSpaceOnUse">
<stop stop-color="#B77AF4"/>
<stop offset="1" stop-color="#773ADC"/>
</linearGradient>
<linearGradient id="paint6_linear_1934_161243" x1="7.96875" y1="12.6567" x2="12.8044" y2="12.6567" gradientUnits="userSpaceOnUse">
<stop stop-color="#B77AF4"/>
<stop offset="1" stop-color="#773ADC"/>
</linearGradient>
</defs>
</svg>