<svg xmlns:xlink="http://www.w3.org/1999/xlink" xmlns="http://www.w3.org/2000/svg" width="48" height="48" viewBox="0 0 48 48" fill="none">
<path d="M47 30.3927C46.9448 27.9382 46.008 25.5856 44.361 23.765C42.7139 21.9443 40.4667 20.7772 38.03 20.4771C37.8837 17.0515 36.3933 13.8215 33.882 11.4871C31.3706 9.15276 28.0405 7.90203 24.6133 8.006C21.845 7.94595 19.1259 8.7439 16.829 10.2904C14.5322 11.8369 12.7701 14.0562 11.7844 16.6438C8.85076 17.0003 6.1444 18.4039 4.16302 20.5966C2.18164 22.7893 1.05846 25.6235 1 28.5782C1.12647 31.891 2.56143 35.0184 4.99027 37.2748C7.4191 39.5312 10.6436 40.7323 13.9567 40.6149H15.0811H36.0622C36.2487 40.6415 36.438 40.6415 36.6244 40.6149C39.3419 40.5892 41.943 39.5087 43.8789 37.6014C45.8147 35.6942 46.9338 33.1094 47 30.3927V30.3927Z" fill="url(#paint0_linear_1915_136527)"/>
<path d="M14.8503 27.8681H12.6014C12.4476 27.2014 12.0538 26.6146 11.4951 26.2196C10.9364 25.8246 10.2519 25.6491 9.57204 25.7265C8.89221 25.8039 8.26465 26.1288 7.80902 26.6392C7.35339 27.1497 7.10156 27.81 7.10156 28.4942C7.10156 29.1784 7.35339 29.8387 7.80902 30.3491C8.26465 30.8596 8.89221 31.1845 9.57204 31.2619C10.2519 31.3393 10.9364 31.1637 11.4951 30.7688C12.0538 30.3738 12.4476 29.787 12.6014 29.1203H14.8503C14.9858 29.1203 15.1158 29.1741 15.2117 29.27C15.3075 29.3658 15.3614 29.4958 15.3614 29.6314V40.6203H16.6136V29.6314C16.6136 29.1637 16.4278 28.7152 16.0971 28.3845C15.7665 28.0538 15.3179 27.8681 14.8503 27.8681V27.8681ZM9.86695 30.117C9.54347 30.117 9.22725 30.021 8.95829 29.8413C8.68932 29.6616 8.47969 29.4062 8.3559 29.1073C8.2321 28.8084 8.19971 28.4796 8.26282 28.1623C8.32593 27.8451 8.4817 27.5536 8.71044 27.3249C8.93918 27.0962 9.2306 26.9404 9.54787 26.8773C9.86514 26.8142 10.194 26.8466 10.4929 26.9703C10.7917 27.0941 11.0471 27.3038 11.2269 27.5727C11.4066 27.8417 11.5025 28.1579 11.5025 28.4814C11.5025 28.9152 11.3302 29.3312 11.0235 29.6379C10.7167 29.9446 10.3007 30.117 9.86695 30.117V30.117Z" fill="#9CEBFF"/>
<path d="M23.8463 28.4227V25.8672C23.8463 25.3927 23.6579 24.9377 23.3224 24.6023C22.9869 24.2668 22.5319 24.0783 22.0575 24.0783H18.0963C17.9608 24.0783 17.8308 24.0245 17.7349 23.9286C17.6391 23.8327 17.5852 23.7027 17.5852 23.5672V9.99719L16.9975 10.3039L16.333 10.6616V23.4394C16.333 23.9071 16.5188 24.3556 16.8495 24.6863C17.1802 25.017 17.6287 25.2027 18.0963 25.2027H22.0575C22.1279 25.2027 22.1977 25.2166 22.2628 25.2436C22.3279 25.2706 22.3871 25.3101 22.4369 25.3599C22.4868 25.4098 22.5263 25.4689 22.5533 25.534C22.5802 25.5992 22.5941 25.6689 22.5941 25.7394V28.295C21.9766 28.4296 21.424 28.772 21.0287 29.265C20.6333 29.7581 20.4191 30.3719 20.4219 31.0039C20.4214 31.5275 20.5686 32.0406 20.8464 32.4844C21.1243 32.9282 21.5216 33.2847 21.9928 33.5131C22.464 33.7414 22.99 33.8323 23.5106 33.7753C24.0311 33.7183 24.525 33.5158 24.9356 33.1909C25.3463 32.8661 25.6571 32.4321 25.8323 31.9387C26.0076 31.4452 26.0402 30.9124 25.9265 30.4013C25.8128 29.8902 25.5573 29.4215 25.1894 29.0489C24.8215 28.6764 24.356 28.4151 23.8463 28.295V28.4227ZM23.2075 32.7672C22.884 32.7672 22.5678 32.6713 22.2988 32.4916C22.0298 32.3118 21.8202 32.0564 21.6964 31.7575C21.5726 31.4587 21.5402 31.1298 21.6033 30.8126C21.6664 30.4953 21.8222 30.2039 22.0509 29.9751C22.2797 29.7464 22.5711 29.5906 22.8884 29.5275C23.2056 29.4644 23.5345 29.4968 23.8334 29.6206C24.1322 29.7444 24.3876 29.954 24.5674 30.223C24.7471 30.4919 24.843 30.8082 24.843 31.1316C24.843 31.3464 24.8007 31.5591 24.7185 31.7575C24.6363 31.956 24.5158 32.1363 24.364 32.2881C24.2121 32.44 24.0318 32.5605 23.8334 32.6427C23.6349 32.7249 23.4222 32.7672 23.2075 32.7672V32.7672Z" fill="#F2F2F2"/>
<path d="M38.1312 23.0345C37.4499 23.037 36.7931 23.2891 36.2851 23.7431C35.7771 24.1971 35.4531 24.8216 35.3744 25.4984C35.2957 26.1751 35.4678 26.8573 35.858 27.4157C36.2483 27.9742 36.8298 28.3703 37.4923 28.529V29.0401C37.4923 29.1106 37.4785 29.1804 37.4515 29.2455C37.4245 29.3106 37.385 29.3697 37.3352 29.4196C37.2853 29.4694 37.2262 29.5089 37.1611 29.5359C37.0959 29.5629 37.0262 29.5768 36.9557 29.5768H31.8446V20.5812C31.8446 20.3496 31.799 20.1204 31.7103 19.9064C31.6217 19.6925 31.4918 19.4981 31.3281 19.3343C31.1644 19.1706 30.97 19.0407 30.756 18.9521C30.5421 18.8635 30.3128 18.8179 30.0812 18.8179H27.449C27.3144 18.2004 26.972 17.6478 26.4789 17.2524C25.9859 16.857 25.3721 16.6429 24.7401 16.6457C24.2165 16.6452 23.7034 16.7923 23.2596 17.0702C22.8157 17.348 22.4592 17.7454 22.2309 18.2166C22.0026 18.6878 21.9117 19.2138 21.9687 19.7343C22.0257 20.2548 22.2282 20.7487 22.553 21.1594C22.8779 21.57 23.3119 21.8808 23.8053 22.0561C24.2987 22.2314 24.8315 22.264 25.3427 22.1503C25.8538 22.0366 26.3225 21.7811 26.695 21.4132C27.0676 21.0452 27.3289 20.5798 27.449 20.0701H30.1835C30.319 20.0701 30.449 20.124 30.5449 20.2198C30.6407 20.3157 30.6946 20.4457 30.6946 20.5812V40.6168H31.9468V30.829H37.0579C37.5323 30.829 37.9874 30.6405 38.3228 30.305C38.6583 29.9696 38.8468 29.5145 38.8468 29.0401V28.529C39.4621 28.3901 40.012 28.0465 40.4066 27.5544C40.8012 27.0623 41.0171 26.4509 41.019 25.8201C41.0193 25.4455 40.944 25.0748 40.7976 24.73C40.6513 24.3852 40.4369 24.0734 40.1673 23.8134C39.8978 23.5533 39.5785 23.3503 39.2286 23.2165C38.8788 23.0827 38.5055 23.0208 38.1312 23.0345V23.0345ZM24.7401 21.0668C24.4166 21.0668 24.1004 20.9708 23.8314 20.7911C23.5625 20.6114 23.3529 20.356 23.2291 20.0571C23.1053 19.7583 23.0729 19.4294 23.136 19.1121C23.1991 18.7949 23.3549 18.5034 23.5836 18.2747C23.8123 18.046 24.1038 17.8902 24.421 17.8271C24.7383 17.764 25.0672 17.7964 25.366 17.9202C25.6649 18.0439 25.9203 18.2536 26.1 18.5225C26.2797 18.7915 26.3757 19.1077 26.3757 19.4312C26.3757 19.646 26.3334 19.8587 26.2512 20.0571C26.169 20.2555 26.0485 20.4358 25.8966 20.5877C25.7448 20.7396 25.5645 20.8601 25.366 20.9423C25.1676 21.0245 24.9549 21.0668 24.7401 21.0668V21.0668ZM38.1312 27.4557C37.8067 27.4607 37.488 27.3691 37.2157 27.1925C36.9434 27.0159 36.7298 26.7623 36.6021 26.4639C36.4744 26.1655 36.4383 25.8359 36.4985 25.517C36.5587 25.198 36.7124 24.9042 36.9401 24.6729C37.1678 24.4416 37.4591 24.2833 37.7771 24.2181C38.095 24.1529 38.4252 24.1838 38.7255 24.3068C39.0259 24.4298 39.2828 24.6393 39.4637 24.9088C39.6446 25.1783 39.7412 25.4955 39.7412 25.8201C39.7413 26.2495 39.5725 26.6617 39.2713 26.9677C38.97 27.2737 38.5606 27.4489 38.1312 27.4557V27.4557Z" fill="#9CEBFF"/>
<defs>
<linearGradient id="paint0_linear_1915_136527" x1="24" y1="50.1982" x2="24" y2="0.569333" gradientUnits="userSpaceOnUse">
<stop stop-color="#0078D4"/>
<stop offset="0.16" stop-color="#1380DA"/>
<stop offset="0.53" stop-color="#3C91E5"/>
<stop offset="0.82" stop-color="#559CEC"/>
<stop offset="1" stop-color="#5EA0EF"/>
</linearGradient>
</defs>
</svg>