<svg xmlns:xlink="http://www.w3.org/1999/xlink" xmlns="http://www.w3.org/2000/svg" width="16" height="16" viewBox="0 0 16 16" fill="none">
<path d="M15.2537 7.2639C15.232 6.5053 14.9405 5.7793 14.4316 5.21628C13.9227 4.65326 13.2298 4.29011 12.4772 4.19205C12.4333 3.13169 11.9724 2.13158 11.1948 1.40931C10.4172 0.687051 9.3859 0.301072 8.32519 0.335355C7.46944 0.321259 6.63033 0.57249 5.92314 1.05453C5.21594 1.53657 4.67536 2.22578 4.37566 3.02745C3.46608 3.13234 2.62457 3.56091 2.00481 4.2349C1.38506 4.90888 1.02841 5.7833 1 6.69848C1.01521 7.21129 1.13192 7.71599 1.34338 8.18342C1.55484 8.65085 1.85685 9.07173 2.23196 9.42173C2.60707 9.77173 3.04783 10.0439 3.52877 10.2225C4.00971 10.4011 4.52128 10.4826 5.03392 10.4623H5.38836H11.8696H12.0469C12.8932 10.4536 13.7025 10.1141 14.3018 9.51637C14.9011 8.91867 15.2428 8.11022 15.2537 7.2639Z" fill="url(#paint0_linear_1934_161292)"/>
<path d="M5.9109 5.78701L8.13884 3.60126C8.16243 3.57702 8.19064 3.55775 8.22181 3.54459C8.25297 3.53144 8.28645 3.52466 8.32028 3.52466C8.35411 3.52466 8.38759 3.53144 8.41876 3.54459C8.44992 3.55775 8.47813 3.57702 8.50172 3.60126L10.6706 5.78701C10.6893 5.80207 10.7026 5.82289 10.7084 5.84625C10.7141 5.8696 10.7121 5.8942 10.7025 5.91627C10.6929 5.93833 10.6763 5.95662 10.6553 5.96834C10.6343 5.98006 10.61 5.98454 10.5862 5.98111H9.21905C9.18837 5.98309 9.15946 5.99618 9.13772 6.01792C9.11597 6.03966 9.10289 6.06857 9.1009 6.09925V8.83354C9.1009 8.85816 9.09112 8.88177 9.07371 8.89918C9.0563 8.91659 9.03269 8.92637 9.00807 8.92637H7.53966C7.51504 8.92637 7.49143 8.91659 7.47402 8.89918C7.45661 8.88177 7.44683 8.85816 7.44683 8.83354V6.09925C7.44691 6.06933 7.43562 6.04049 7.41526 6.01856C7.3949 5.99663 7.36697 5.98324 7.33712 5.98111H5.98686C5.96379 5.98238 5.94091 5.97634 5.92148 5.96385C5.90205 5.95136 5.88705 5.93305 5.87864 5.91154C5.87022 5.89003 5.86881 5.86641 5.8746 5.84405C5.88039 5.82169 5.8931 5.80172 5.9109 5.78701V5.78701Z" fill="#F2F2F2"/>
<path d="M12.3602 9.93078C12.3614 9.90669 12.3546 9.88289 12.3408 9.86305C12.3271 9.84322 12.3072 9.82847 12.2842 9.82107L8.27565 8.47925H8.14062V15.5259H8.25033L12.2252 13.9394C12.2408 13.9431 12.2572 13.9434 12.2729 13.9401C12.2887 13.9368 12.3036 13.9301 12.3165 13.9204C12.3293 13.9108 12.3399 13.8984 12.3475 13.8841C12.3551 13.8699 12.3594 13.8542 12.3602 13.8381V9.93078Z" fill="#A67AF4"/>
<path d="M8.1417 8.50456L4.33564 9.20501C4.30872 9.20885 4.28393 9.22185 4.26548 9.24184C4.24703 9.26183 4.23605 9.28757 4.23438 9.31472V14.5723C4.2352 14.5993 4.24466 14.6254 4.26137 14.6466C4.27807 14.6679 4.30114 14.6833 4.32721 14.6905L8.1417 15.5259C8.15806 15.5298 8.17509 15.5299 8.19149 15.5262C8.20788 15.5224 8.22319 15.5149 8.23624 15.5043C8.24929 15.4937 8.25973 15.4803 8.26675 15.465C8.27377 15.4497 8.27718 15.433 8.27673 15.4162V8.6649C8.28497 8.64492 8.28757 8.62305 8.28425 8.60169C8.28093 8.58033 8.2718 8.56029 8.25788 8.54375C8.24395 8.52722 8.22576 8.51482 8.20527 8.50791C8.18479 8.501 8.1628 8.49984 8.1417 8.50456V8.50456Z" fill="#552F99"/>
<path opacity="0.75" d="M6.38281 9.55086V14.454L7.70776 14.665V9.323L6.38281 9.55086Z" fill="#B77AF4"/>
<path opacity="0.75" d="M4.74609 9.82105V14.1081L5.90226 14.3444V9.62695L4.74609 9.82105Z" fill="#B77AF4"/>
<defs>
<linearGradient id="paint0_linear_1934_161292" x1="8.13952" y1="10.4201" x2="8.13952" y2="0.335356" gradientUnits="userSpaceOnUse">
<stop stop-color="#0078D4"/>
<stop offset="0.16" stop-color="#1380DA"/>
<stop offset="0.53" stop-color="#3C91E5"/>
<stop offset="0.82" stop-color="#559CEC"/>
<stop offset="1" stop-color="#5EA0EF"/>
</linearGradient>
</defs>
</svg>