<svg xmlns:xlink="http://www.w3.org/1999/xlink" xmlns="http://www.w3.org/2000/svg" width="48" height="48" viewBox="0 0 48 48" fill="none">
<path d="M47 30.3927C46.9448 27.9382 46.008 25.5856 44.361 23.765C42.7139 21.9443 40.4667 20.7772 38.03 20.4771C37.8837 17.0515 36.3933 13.8215 33.882 11.4871C31.3706 9.15276 28.0405 7.90203 24.6133 8.006C21.845 7.94595 19.1259 8.7439 16.829 10.2904C14.5322 11.8369 12.7701 14.0562 11.7844 16.6438C8.85076 17.0003 6.1444 18.4039 4.16302 20.5966C2.18164 22.7893 1.05846 25.6235 1 28.5782C1.12647 31.891 2.56143 35.0184 4.99027 37.2748C7.4191 39.5312 10.6436 40.7323 13.9567 40.6149H15.0811H36.0622C36.2487 40.6415 36.438 40.6415 36.6244 40.6149C39.3419 40.5892 41.943 39.5087 43.8789 37.6014C45.8147 35.6942 46.9338 33.1094 47 30.3927V30.3927Z" fill="url(#paint0_linear_1915_132676)"/>
<path d="M14.8503 27.8679H12.6014C12.4476 27.2012 12.0538 26.6145 11.4951 26.2195C10.9364 25.8245 10.2519 25.649 9.57204 25.7264C8.89221 25.8038 8.26465 26.1287 7.80902 26.6391C7.35339 27.1496 7.10156 27.8098 7.10156 28.4941C7.10156 29.1783 7.35339 29.8386 7.80902 30.349C8.26465 30.8594 8.89221 31.1843 9.57204 31.2617C10.2519 31.3391 10.9364 31.1636 11.4951 30.7686C12.0538 30.3737 12.4476 29.7869 12.6014 29.1202H14.8503C14.9858 29.1202 15.1158 29.174 15.2117 29.2699C15.3075 29.3657 15.3614 29.4957 15.3614 29.6313V40.6202H16.6136V29.6313C16.6136 29.1636 16.4278 28.7151 16.0971 28.3844C15.7665 28.0537 15.3179 27.8679 14.8503 27.8679V27.8679ZM9.86695 30.1168C9.54347 30.1168 9.22725 30.0209 8.95829 29.8412C8.68932 29.6615 8.47969 29.406 8.3559 29.1072C8.2321 28.8083 8.19971 28.4795 8.26282 28.1622C8.32593 27.8449 8.4817 27.5535 8.71044 27.3248C8.93918 27.096 9.2306 26.9403 9.54787 26.8772C9.86514 26.814 10.194 26.8464 10.4929 26.9702C10.7917 27.094 11.0471 27.3036 11.2269 27.5726C11.4066 27.8416 11.5025 28.1578 11.5025 28.4813C11.5025 28.9151 11.3302 29.3311 11.0235 29.6378C10.7167 29.9445 10.3007 30.1168 9.86695 30.1168V30.1168Z" fill="#9CEBFF"/>
<path d="M23.8463 28.4226V25.8671C23.8463 25.3926 23.6579 24.9376 23.3224 24.6021C22.9869 24.2667 22.5319 24.0782 22.0575 24.0782H18.0963C17.9608 24.0782 17.8308 24.0243 17.7349 23.9285C17.6391 23.8326 17.5852 23.7026 17.5852 23.5671V9.99707L16.9975 10.3037L16.333 10.6615V23.4393C16.333 23.907 16.5188 24.3555 16.8495 24.6862C17.1802 25.0168 17.6287 25.2026 18.0963 25.2026H22.0575C22.1279 25.2026 22.1977 25.2165 22.2628 25.2435C22.3279 25.2704 22.3871 25.31 22.4369 25.3598C22.4868 25.4096 22.5263 25.4688 22.5533 25.5339C22.5802 25.599 22.5941 25.6688 22.5941 25.7393V28.2948C21.9766 28.4294 21.424 28.7719 21.0287 29.2649C20.6333 29.758 20.4191 30.3717 20.4219 31.0037C20.4214 31.5273 20.5686 32.0405 20.8464 32.4843C21.1243 32.9281 21.5216 33.2846 21.9928 33.5129C22.464 33.7412 22.99 33.8321 23.5106 33.7752C24.0311 33.7182 24.525 33.5157 24.9356 33.1908C25.3463 32.866 25.6571 32.4319 25.8323 31.9385C26.0076 31.4451 26.0402 30.9123 25.9265 30.4012C25.8128 29.8901 25.5573 29.4214 25.1894 29.0488C24.8215 28.6763 24.356 28.4149 23.8463 28.2948V28.4226ZM23.2075 32.7671C22.884 32.7671 22.5678 32.6711 22.2988 32.4914C22.0298 32.3117 21.8202 32.0563 21.6964 31.7574C21.5726 31.4586 21.5402 31.1297 21.6033 30.8124C21.6664 30.4952 21.8222 30.2037 22.0509 29.975C22.2797 29.7463 22.5711 29.5905 22.8884 29.5274C23.2056 29.4643 23.5345 29.4967 23.8334 29.6205C24.1322 29.7442 24.3876 29.9539 24.5674 30.2228C24.7471 30.4918 24.843 30.808 24.843 31.1315C24.843 31.3463 24.8007 31.559 24.7185 31.7574C24.6363 31.9558 24.5158 32.1361 24.364 32.288C24.2121 32.4399 24.0318 32.5604 23.8334 32.6426C23.6349 32.7248 23.4222 32.7671 23.2075 32.7671V32.7671Z" fill="#F2F2F2"/>
<path d="M38.1312 23.0344C37.4499 23.0369 36.7931 23.289 36.2851 23.743C35.7771 24.197 35.4531 24.8215 35.3744 25.4982C35.2957 26.175 35.4678 26.8571 35.858 27.4156C36.2483 27.9741 36.8298 28.3701 37.4923 28.5289V29.04C37.4923 29.1105 37.4785 29.1802 37.4515 29.2454C37.4245 29.3105 37.385 29.3696 37.3352 29.4195C37.2853 29.4693 37.2262 29.5088 37.1611 29.5358C37.0959 29.5628 37.0262 29.5766 36.9557 29.5766H31.8446V20.5811C31.8446 20.3495 31.799 20.1202 31.7103 19.9063C31.6217 19.6924 31.4918 19.498 31.3281 19.3342C31.1644 19.1705 30.97 19.0406 30.756 18.952C30.5421 18.8634 30.3128 18.8178 30.0812 18.8178H27.449C27.3144 18.2003 26.972 17.6477 26.4789 17.2523C25.9859 16.8569 25.3721 16.6427 24.7401 16.6455C24.2165 16.6451 23.7034 16.7922 23.2596 17.0701C22.8157 17.3479 22.4592 17.7452 22.2309 18.2165C22.0026 18.6877 21.9117 19.2137 21.9687 19.7342C22.0257 20.2547 22.2282 20.7486 22.553 21.1593C22.8779 21.5699 23.3119 21.8807 23.8053 22.056C24.2987 22.2312 24.8315 22.2639 25.3427 22.1502C25.8538 22.0364 26.3225 21.781 26.695 21.413C27.0676 21.0451 27.3289 20.5796 27.449 20.07H30.1835C30.319 20.07 30.449 20.1238 30.5449 20.2197C30.6407 20.3155 30.6946 20.4455 30.6946 20.5811V40.6166H31.9468V30.8289H37.0579C37.5323 30.8289 37.9874 30.6404 38.3228 30.3049C38.6583 29.9694 38.8468 29.5144 38.8468 29.04V28.5289C39.4621 28.39 40.012 28.0464 40.4066 27.5543C40.8012 27.0622 41.0171 26.4507 41.019 25.82C41.0193 25.4454 40.944 25.0746 40.7976 24.7298C40.6513 24.385 40.4369 24.0733 40.1673 23.8133C39.8978 23.5532 39.5785 23.3502 39.2286 23.2164C38.8788 23.0826 38.5055 23.0207 38.1312 23.0344V23.0344ZM24.7401 21.0666C24.4166 21.0666 24.1004 20.9707 23.8314 20.791C23.5625 20.6113 23.3529 20.3558 23.2291 20.057C23.1053 19.7581 23.0729 19.4293 23.136 19.112C23.1991 18.7947 23.3549 18.5033 23.5836 18.2746C23.8123 18.0458 24.1038 17.8901 24.421 17.827C24.7383 17.7639 25.0672 17.7962 25.366 17.92C25.6649 18.0438 25.9203 18.2535 26.1 18.5224C26.2797 18.7914 26.3757 19.1076 26.3757 19.4311C26.3757 19.6459 26.3334 19.8586 26.2512 20.057C26.169 20.2554 26.0485 20.4357 25.8966 20.5876C25.7448 20.7395 25.5645 20.86 25.366 20.9421C25.1676 21.0243 24.9549 21.0666 24.7401 21.0666V21.0666ZM38.1312 27.4555C37.8067 27.4606 37.488 27.369 37.2157 27.1924C36.9434 27.0158 36.7298 26.7622 36.6021 26.4638C36.4744 26.1654 36.4383 25.8358 36.4985 25.5169C36.5587 25.1979 36.7124 24.9041 36.9401 24.6728C37.1678 24.4415 37.4591 24.2832 37.7771 24.218C38.095 24.1528 38.4252 24.1836 38.7255 24.3066C39.0259 24.4296 39.2828 24.6392 39.4637 24.9087C39.6446 25.1782 39.7412 25.4954 39.7412 25.82C39.7413 26.2494 39.5725 26.6615 39.2713 26.9676C38.97 27.2736 38.5606 27.4488 38.1312 27.4555V27.4555Z" fill="#9CEBFF"/>
<defs>
<linearGradient id="paint0_linear_1915_132676" x1="24" y1="50.1982" x2="24" y2="0.569333" gradientUnits="userSpaceOnUse">
<stop stop-color="#0078D4"/>
<stop offset="0.16" stop-color="#1380DA"/>
<stop offset="0.53" stop-color="#3C91E5"/>
<stop offset="0.82" stop-color="#559CEC"/>
<stop offset="1" stop-color="#5EA0EF"/>
</linearGradient>
</defs>
</svg>