<svg xmlns:xlink="http://www.w3.org/1999/xlink" xmlns="http://www.w3.org/2000/svg" width="48" height="49" viewBox="0 0 48 49" fill="none">
<path d="M14.6667 6.23281C14.6667 2.9191 17.353 0.232819 20.6667 0.232819H27.3333C30.647 0.232819 33.3333 2.91911 33.3333 6.23282V10.9528H42C45.3137 10.9528 48 13.6391 48 16.9528V46.2861C48 47.3907 47.1046 48.2861 46 48.2861H2C0.895431 48.2861 0 47.3907 0 46.2861V24.9528C0 21.6391 2.68629 18.9528 6 18.9528H14.6667V6.23281ZM18.6667 44.2861H29.3333V6.23282C29.3333 5.12825 28.4379 4.23282 27.3333 4.23282H20.6667C19.5621 4.23282 18.6667 5.12825 18.6667 6.23281V44.2861ZM14.6667 22.9528H6C4.89543 22.9528 4 23.8482 4 24.9528V44.2861H14.6667V22.9528ZM33.3333 44.2861H44V16.9528C44 15.8482 43.1046 14.9528 42 14.9528H33.3333V44.2861Z" fill="#F4FAFD"/>
</svg>