<svg xmlns:xlink="http://www.w3.org/1999/xlink" xmlns="http://www.w3.org/2000/svg" width="44" height="54" viewBox="0 0 44 54" fill="none">
<path d="M6.66669 4.61948C5.56212 4.61948 4.66669 5.51491 4.66669 6.61948V49.9528H10V42.6195C10 40.7785 11.4924 39.2861 13.3334 39.2861H30.6667C32.5076 39.2861 34 40.7785 34 42.6195V49.9528H39.3334V26.6195C39.3334 25.5149 38.4379 24.6195 37.3334 24.6195H32C30.8955 24.6195 30 23.724 30 22.6195V6.61948C30 5.51491 29.1046 4.61948 28 4.61948H6.66669ZM14 43.2861V49.9528H20V43.2861H14ZM24 43.2861V49.9528H30V43.2861H24ZM41.3334 53.9528H2.66669C1.56212 53.9528 0.666687 53.0574 0.666687 51.9528V6.61948C0.666687 3.30577 3.35298 0.619476 6.66669 0.619476H28C31.3137 0.619476 34 3.30577 34 6.61948V20.6195H37.3334C40.6471 20.6195 43.3334 23.3058 43.3334 26.6195V51.9528C43.3334 53.0574 42.4379 53.9528 41.3334 53.9528ZM10 12.6195C10 11.1467 11.1939 9.95281 12.6667 9.95281C14.1394 9.95281 15.3334 11.1467 15.3334 12.6195C15.3334 14.0922 14.1394 15.2861 12.6667 15.2861C11.1939 15.2861 10 14.0922 10 12.6195ZM12.6667 28.6195C11.1939 28.6195 10 29.8134 10 31.2861C10 32.7589 11.1939 33.9528 12.6667 33.9528C14.1394 33.9528 15.3334 32.7589 15.3334 31.2861C15.3334 29.8134 14.1394 28.6195 12.6667 28.6195ZM12.6667 19.2861C11.1939 19.2861 10 20.48 10 21.9528C10 23.4256 11.1939 24.6195 12.6667 24.6195C14.1394 24.6195 15.3334 23.4256 15.3334 21.9528C15.3334 20.48 14.1394 19.2861 12.6667 19.2861ZM22 9.95281C20.5273 9.95281 19.3334 11.1467 19.3334 12.6195C19.3334 14.0922 20.5273 15.2861 22 15.2861C23.4728 15.2861 24.6667 14.0922 24.6667 12.6195C24.6667 11.1467 23.4728 9.95281 22 9.95281ZM22 28.6195C20.5273 28.6195 19.3334 29.8134 19.3334 31.2861C19.3334 32.7589 20.5273 33.9528 22 33.9528C23.4728 33.9528 24.6667 32.7589 24.6667 31.2861C24.6667 29.8134 23.4728 28.6195 22 28.6195ZM31.3334 28.6195C29.8606 28.6195 28.6667 29.8134 28.6667 31.2861C28.6667 32.7589 29.8606 33.9528 31.3334 33.9528C32.8061 33.9528 34 32.7589 34 31.2861C34 29.8134 32.8061 28.6195 31.3334 28.6195ZM22 19.2861C20.5273 19.2861 19.3334 20.48 19.3334 21.9528C19.3334 23.4256 20.5273 24.6195 22 24.6195C23.4728 24.6195 24.6667 23.4256 24.6667 21.9528C24.6667 20.48 23.4728 19.2861 22 19.2861Z" fill="#F4FAFD"/>
</svg>