<svg xmlns:xlink="http://www.w3.org/1999/xlink" xmlns="http://www.w3.org/2000/svg" width="16" height="16" viewBox="0 0 16 16" fill="none">
<path d="M15.3346 9.88689C15.3202 9.09318 15.025 8.33025 14.5014 7.73356C13.9779 7.13687 13.2597 6.74504 12.4746 6.62764C12.4426 5.52178 11.9752 4.47331 11.1741 3.71033C10.373 2.94736 9.30295 2.53162 8.19686 2.55356C7.30625 2.54445 6.43501 2.81355 5.70467 3.32333C4.97433 3.83311 4.42132 4.55813 4.12278 5.39726C3.17347 5.51933 2.30049 5.9811 1.66536 6.69712C1.03022 7.41315 0.675908 8.33498 0.667969 9.29208C0.706213 10.3569 1.1601 11.3644 1.93233 12.0985C2.70456 12.8327 3.73368 13.2351 4.79908 13.2195H5.1576H11.8472C11.9067 13.228 11.967 13.228 12.0265 13.2195C12.9035 13.2047 13.74 12.848 14.3579 12.2256C14.9758 11.6031 15.3263 10.7639 15.3346 9.88689Z" fill="url(#paint0_linear_1934_161289)"/>
<path d="M10.715 6.03284C10.4594 5.6089 10.0838 5.27031 9.63577 5.05993C9.1877 4.84955 8.68729 4.77683 8.19787 4.85098C7.70845 4.92514 7.25204 5.14283 6.8864 5.4765C6.52077 5.81017 6.26235 6.24482 6.14385 6.72543C5.99864 7.35389 6.0946 8.01396 6.41274 8.57506L4.50607 10.5062C4.44596 10.566 4.39826 10.6371 4.36571 10.7154C4.33316 10.7937 4.31641 10.8777 4.31641 10.9625C4.31641 11.0473 4.33316 11.1312 4.36571 11.2095C4.39826 11.2878 4.44596 11.3589 4.50607 11.4188C4.5658 11.4788 4.63694 11.5264 4.7153 11.5585C4.79366 11.5907 4.87766 11.6069 4.96237 11.6062C5.04721 11.6079 5.13149 11.5921 5.20998 11.5599C5.28848 11.5276 5.35951 11.4796 5.41867 11.4188L7.31719 9.4958C7.52356 9.61578 7.74572 9.70629 7.97719 9.76469C8.45793 9.88014 8.96207 9.85102 9.42632 9.68099C9.89058 9.51095 10.2943 9.20757 10.5867 8.80893C10.8792 8.41029 11.0474 7.93414 11.0702 7.44026C11.093 6.94637 10.9694 6.45675 10.715 6.03284ZM10.275 7.74395C10.1821 8.12609 9.96396 8.46612 9.6553 8.7098C9.34664 8.95348 8.96525 9.08677 8.572 9.08839C8.43146 9.0895 8.29149 9.07029 8.15644 9.03136C7.9503 8.98493 7.75606 8.89614 7.58607 8.77062C7.40679 8.64838 7.25201 8.49361 7.12978 8.31432C6.99169 8.10997 6.89788 7.87899 6.85438 7.63622C6.81088 7.39346 6.81865 7.14428 6.87719 6.90469C6.96549 6.52101 7.18105 6.1785 7.48878 5.93291C7.7965 5.68732 8.17829 5.5531 8.572 5.5521C8.71463 5.55229 8.85678 5.56869 8.9957 5.60099C9.44744 5.72054 9.83388 6.0133 10.0713 6.4158C10.1918 6.61253 10.2719 6.83131 10.3069 7.05936C10.3418 7.28741 10.331 7.52014 10.275 7.74395V7.74395Z" fill="#F2F2F2"/>
<path d="M8.56435 9.08836C9.53187 9.08836 10.3162 8.30038 10.3162 7.32836C10.3162 6.35634 9.53187 5.56836 8.56435 5.56836C7.59683 5.56836 6.8125 6.35634 6.8125 7.32836C6.8125 8.30038 7.59683 9.08836 8.56435 9.08836Z" fill="#83B9F9"/>
<defs>
<linearGradient id="paint0_linear_1934_161289" x1="8.0013" y1="0.956524" x2="8.0013" y2="15.5824" gradientUnits="userSpaceOnUse">
<stop offset="0.18" stop-color="#5EA0EF"/>
<stop offset="1" stop-color="#0078D4"/>
</linearGradient>
</defs>
</svg>