<svg xmlns:xlink="http://www.w3.org/1999/xlink" xmlns="http://www.w3.org/2000/svg" width="48" height="48" viewBox="0 0 48 48" fill="none">
<path d="M23.7788 1C19.2736 1 14.8696 2.34893 11.1236 4.8762C7.37764 7.40347 4.45802 10.9956 2.73395 15.1983C1.00987 19.401 0.558773 24.0255 1.4377 28.4871C2.31663 32.9486 4.4861 37.0468 7.67178 40.2634C10.8575 43.4801 14.9163 45.6706 19.3349 46.5581C23.7536 47.4455 28.3336 46.99 32.4959 45.2492C36.6582 43.5084 40.2158 40.5604 42.7188 36.7781C45.2217 32.9958 46.5577 28.549 46.5577 24C46.5577 17.9 44.1578 12.0499 39.8859 7.73654C35.6141 3.42321 29.8202 1 23.7788 1Z" fill="url(#paint0_radial_1915_132668)"/>
<path d="M23.7769 43.0193C34.1817 43.0193 42.6164 34.5027 42.6164 23.997C42.6164 13.4912 34.1817 4.97461 23.7769 4.97461C13.3722 4.97461 4.9375 13.4912 4.9375 23.997C4.9375 34.5027 13.3722 43.0193 23.7769 43.0193Z" fill="white"/>
<path d="M19.626 26.085C20.7656 26.085 21.6895 25.1522 21.6895 24.0015C21.6895 22.8508 20.7656 21.918 19.626 21.918C18.4864 21.918 17.5625 22.8508 17.5625 24.0015C17.5625 25.1522 18.4864 26.085 19.626 26.085Z" fill="#32BEDD"/>
<path d="M13.7564 18.0444H12.7381C12.532 18.0444 12.3343 18.127 12.1886 18.2742C12.0428 18.4214 11.9609 18.621 11.9609 18.8291V34.3067C11.9609 34.7301 12.1275 35.1362 12.424 35.4356C12.7206 35.735 13.1227 35.9032 13.5421 35.9032H28.4689C28.5732 35.9032 28.6765 35.8821 28.7726 35.841C28.8687 35.7998 28.9556 35.7396 29.0281 35.6639C29.1007 35.5881 29.1573 35.4984 29.1948 35.4C29.2322 35.3017 29.2497 35.1967 29.2461 35.0914V34.0632C29.2461 33.8551 29.1642 33.6555 29.0184 33.5083C28.8727 33.3611 28.675 33.2785 28.4689 33.2785H15.0696C15.018 33.2786 14.9669 33.268 14.9195 33.2473C14.8722 33.2266 14.8296 33.1962 14.7943 33.1581C14.7591 33.12 14.7321 33.075 14.7149 33.0259C14.6977 32.9768 14.6907 32.9246 14.6944 32.8726V18.8291C14.6969 18.7108 14.673 18.5935 14.6243 18.4859C14.5756 18.3784 14.5035 18.2833 14.4133 18.2078C14.3231 18.1323 14.2171 18.0784 14.1034 18.0501C13.9897 18.0218 13.871 18.0199 13.7564 18.0444V18.0444Z" fill="#32BEDD"/>
<path d="M27.9346 26.085C29.0742 26.085 29.9981 25.1522 29.9981 24.0015C29.9981 22.8508 29.0742 21.918 27.9346 21.918C26.795 21.918 25.8711 22.8508 25.8711 24.0015C25.8711 25.1522 26.795 26.085 27.9346 26.085Z" fill="#32BEDD"/>
<path d="M32.9439 12.0977H19.0354C18.9311 12.0976 18.8278 12.1188 18.7317 12.1599C18.6356 12.201 18.5487 12.2612 18.4762 12.337C18.4037 12.4127 18.347 12.5025 18.3096 12.6008C18.2721 12.6992 18.2547 12.8041 18.2583 12.9094V13.9377C18.2583 14.1458 18.3402 14.3454 18.4859 14.4925C18.6316 14.6397 18.8293 14.7224 19.0354 14.7224H32.4347C32.5414 14.7224 32.6436 14.7651 32.719 14.8412C32.7944 14.9174 32.8367 15.0206 32.8367 15.1282V29.1718C32.8367 29.3799 32.9186 29.5795 33.0644 29.7266C33.2101 29.8738 33.4078 29.9565 33.6139 29.9565H34.6322C34.8384 29.9565 35.036 29.8738 35.1818 29.7266C35.3275 29.5795 35.4094 29.3799 35.4094 29.1718V13.6941C35.4095 13.2754 35.2466 12.8733 34.9558 12.5747C34.6651 12.2761 34.2698 12.1048 33.8551 12.0977H32.9439Z" fill="#32BEDD"/>
<defs>
<radialGradient id="paint0_radial_1915_132668" cx="0" cy="0" r="1" gradientUnits="userSpaceOnUse" gradientTransform="translate(23.1287 23.1471) scale(22.6716 22.8918)">
<stop offset="0.67" stop-color="#6BB9F2"/>
<stop offset="0.74" stop-color="#61B4F1"/>
<stop offset="0.85" stop-color="#47A8EF"/>
<stop offset="0.99" stop-color="#1D94EB"/>
<stop offset="1" stop-color="#1B93EB"/>
</radialGradient>
</defs>
</svg>