<svg xmlns:xlink="http://www.w3.org/1999/xlink" xmlns="http://www.w3.org/2000/svg" width="54" height="49" viewBox="0 0 54 49" fill="none">
<path d="M45.6667 4.28613C43.4575 4.28613 41.6667 6.07699 41.6667 8.28613C41.6667 10.4953 43.4575 12.2861 45.6667 12.2861C47.8758 12.2861 49.6667 10.4953 49.6667 8.28613C49.6667 6.07699 47.8758 4.28613 45.6667 4.28613ZM37.6667 8.28613C37.6667 3.86785 41.2484 0.286133 45.6667 0.286133C50.0849 0.286133 53.6667 3.86785 53.6667 8.28613C53.6667 12.7044 50.0849 16.2861 45.6667 16.2861C45.2352 16.2861 44.8118 16.252 44.3989 16.1862L38.9639 25.142C39.8284 26.4197 40.3333 27.9606 40.3333 29.6195C40.3333 34.0377 36.7516 37.6195 32.3333 37.6195C29.9257 37.6195 27.7665 36.5559 26.2999 34.8729L16.3222 39.8609C16.3296 40.0017 16.3333 40.1435 16.3333 40.2861C16.3333 44.7044 12.7516 48.2861 8.33333 48.2861C3.91505 48.2861 0.333332 44.7044 0.333332 40.2861C0.333332 35.8679 3.91505 32.2861 8.33333 32.2861C11.1764 32.2861 13.6731 33.7692 15.092 36.004L24.5093 31.2961C24.394 30.7554 24.3333 30.1945 24.3333 29.6195C24.3333 25.2012 27.9151 21.6195 32.3333 21.6195C33.6194 21.6195 34.8346 21.9229 35.9112 22.4622L40.7054 14.5624C38.8543 13.0971 37.6667 10.8303 37.6667 8.28613ZM32.3333 25.6195C30.1242 25.6195 28.3333 27.4103 28.3333 29.6195C28.3333 31.8286 30.1242 33.6195 32.3333 33.6195C34.5425 33.6195 36.3333 31.8286 36.3333 29.6195C36.3333 27.4103 34.5425 25.6195 32.3333 25.6195ZM8.33333 36.2861C6.12419 36.2861 4.33333 38.077 4.33333 40.2861C4.33333 42.4953 6.12419 44.2861 8.33333 44.2861C10.5425 44.2861 12.3333 42.4953 12.3333 40.2861C12.3333 38.077 10.5425 36.2861 8.33333 36.2861Z" fill="#F4FAFD"/>
</svg>