<svg xmlns:xlink="http://www.w3.org/1999/xlink" xmlns="http://www.w3.org/2000/svg" width="16" height="16" viewBox="0 0 16 16" fill="none">
<path d="M11.7433 4.50565C9.86075 4.50565 8.33594 4.0201 8.33594 3.41528V9.19936C8.33594 9.78714 9.8352 10.2727 11.7008 10.2812H11.7433C13.6259 10.2812 15.1508 9.79565 15.1508 9.19936V3.41528C15.1508 4.0201 13.6259 4.50565 11.7433 4.50565Z" fill="url(#paint0_linear_1934_161291)"/>
<path d="M15.1508 3.4151C15.1508 4.01992 13.6259 4.50547 11.7433 4.50547C9.86075 4.50547 8.33594 4.01992 8.33594 3.4151C8.33594 2.81029 9.86075 2.33325 11.7433 2.33325C13.6259 2.33325 15.1508 2.81881 15.1508 3.4151Z" fill="#E8E8E8"/>
<path d="M14.3554 3.32989C14.3554 3.71323 13.1798 4.01989 11.7402 4.01989C10.3006 4.01989 9.125 3.71323 9.125 3.32989C9.125 2.94656 10.3006 2.63989 11.7402 2.63989C13.1798 2.63989 14.3554 2.94656 14.3554 3.32989" fill="#50E6FF"/>
<path d="M11.7419 3.49159C11.0432 3.47819 10.3463 3.56424 9.67188 3.74714C10.3432 3.94653 11.0418 4.03853 11.7419 4.01974C12.4419 4.03853 13.1406 3.94653 13.8119 3.74714C13.1375 3.56424 12.4405 3.47819 11.7419 3.49159V3.49159Z" fill="#32BEDD"/>
<path d="M4.07538 4.50565C2.19278 4.50565 0.667969 4.0201 0.667969 3.41528V9.19936C0.667969 9.78714 2.16723 10.2727 4.07538 10.2812C5.95797 10.2812 7.48278 9.79565 7.48278 9.19936V3.41528C7.48278 4.0201 5.95797 4.50565 4.07538 4.50565Z" fill="url(#paint1_linear_1934_161291)"/>
<path d="M7.48278 3.4151C7.48278 4.01992 5.95797 4.50547 4.07538 4.50547C2.19278 4.50547 0.667969 4.01992 0.667969 3.4151C0.667969 2.81029 2.19278 2.33325 4.07538 2.33325C5.95797 2.33325 7.48278 2.81881 7.48278 3.4151Z" fill="#E8E8E8"/>
<path d="M6.69131 3.32989C6.69131 3.71323 5.51575 4.01989 4.07612 4.01989C2.63649 4.01989 1.46094 3.71323 1.46094 3.32989C1.46094 2.94656 2.63649 2.63989 4.07612 2.63989C5.51575 2.63989 6.69131 2.94656 6.69131 3.32989" fill="#50E6FF"/>
<path d="M4.07781 3.49159C3.37919 3.47819 2.68221 3.56424 2.00781 3.74714C2.67914 3.94653 3.37776 4.03853 4.07781 4.01974C4.77787 4.03853 5.47649 3.94653 6.14781 3.74714C5.47342 3.56424 4.77644 3.47819 4.07781 3.49159V3.49159Z" fill="#32BEDD"/>
<path d="M7.90741 8.3643C6.02481 8.3643 4.5 7.87874 4.5 7.27393V13.058C4.5 13.6543 5.99926 14.1313 7.86481 14.1399H7.90741C9.79 14.1399 11.3148 13.6543 11.3148 13.058V7.27393C11.3148 7.87874 9.79 8.3643 7.90741 8.3643Z" fill="url(#paint2_linear_1934_161291)"/>
<path d="M11.3148 7.27375C11.3148 7.87856 9.79 8.36412 7.90741 8.36412C6.02481 8.36412 4.5 7.87856 4.5 7.27375C4.5 6.66893 6.02481 6.19189 7.90741 6.19189C9.79 6.19189 11.3148 6.67745 11.3148 7.27375" fill="#E8E8E8"/>
<path d="M10.5233 7.18913C10.5233 7.57246 9.34778 7.87913 7.90815 7.87913C6.46852 7.87913 5.29297 7.57246 5.29297 7.18913C5.29297 6.8058 6.46852 6.5332 7.90815 6.5332C9.34778 6.5332 10.5233 6.83987 10.5233 7.2232" fill="#50E6FF"/>
<path d="M7.90984 7.38468C7.21122 7.37128 6.51424 7.45733 5.83984 7.64023C6.51301 7.82811 7.21159 7.90861 7.90984 7.87875C8.6099 7.89754 9.30852 7.80554 9.97984 7.60616C9.3038 7.43474 8.60685 7.36017 7.90984 7.38468V7.38468Z" fill="#32BEDD"/>
<defs>
<linearGradient id="paint0_linear_1934_161291" x1="8.33594" y1="6.84825" x2="15.1508" y2="6.84825" gradientUnits="userSpaceOnUse">
<stop stop-color="#005BA1"/>
<stop offset="0.07" stop-color="#0060A9"/>
<stop offset="0.36" stop-color="#0071C8"/>
<stop offset="0.52" stop-color="#0078D4"/>
<stop offset="1" stop-color="#005BA1"/>
</linearGradient>
<linearGradient id="paint1_linear_1934_161291" x1="0.667969" y1="6.84825" x2="7.48278" y2="6.84825" gradientUnits="userSpaceOnUse">
<stop stop-color="#005BA1"/>
<stop offset="0.07" stop-color="#0060A9"/>
<stop offset="0.36" stop-color="#0071C8"/>
<stop offset="0.52" stop-color="#0078D4"/>
<stop offset="1" stop-color="#005BA1"/>
</linearGradient>
<linearGradient id="paint2_linear_1934_161291" x1="4.5" y1="10.7069" x2="11.3148" y2="10.7069" gradientUnits="userSpaceOnUse">
<stop stop-color="#005BA1"/>
<stop offset="0.07" stop-color="#0060A9"/>
<stop offset="0.36" stop-color="#0071C8"/>
<stop offset="0.52" stop-color="#0078D4"/>
<stop offset="1" stop-color="#005BA1"/>
</linearGradient>
</defs>
</svg>