<svg xmlns:xlink="http://www.w3.org/1999/xlink" xmlns="http://www.w3.org/2000/svg" width="28" height="28" viewBox="0 0 28 28" fill="none">
<path d="M14.0359 0.583374L2.33325 7.27431V18.1416V18.8551V20.6475L14.0359 27.4167L25.7385 20.7258V7.30911L14.0359 0.583374ZM23.5807 19.3249L14.0359 24.8413L4.49106 19.3859V10.4501V8.62293V8.59683L14.0359 3.08051L23.5807 8.61423V19.3249Z" fill="#0078D1"/>
<path d="M18.6462 14.0001C18.4548 14.0001 18.2721 14.0175 18.098 14.0524C16.7233 12.2774 14.696 11.0941 12.4686 10.7808L22.1178 5.20362L19.873 3.91589L11.0504 9.01458C10.5979 8.68394 10.0324 8.48383 9.42333 8.48383C7.90069 8.48383 6.66517 9.71934 6.66517 11.242C6.66517 12.7646 7.90069 14.0001 9.42333 14.0001C10.3021 14.0001 11.0939 13.5825 11.5985 12.9386C13.4344 13.0431 15.1398 13.9305 16.2709 15.3488C16.0273 15.7577 15.888 16.2363 15.888 16.7496C15.888 16.8453 15.8967 16.9497 15.9054 17.0454L6.00391 22.7706L8.24002 24.0583L17.0191 18.977C17.4716 19.3076 18.0371 19.5078 18.6462 19.5078C20.1688 19.5078 21.4044 18.2723 21.4044 16.7496C21.4044 15.2357 20.1688 14.0001 18.6462 14.0001Z" fill="#50E6FF"/>
</svg>